Coordinates
version=1
nRows=10
nColumns=33
inDegrees=yes

Units are S.I. units (second, meters, Newtons, ...)
Angles are in degrees.

endheader
time	ground_thorax_rot_x	ground_thorax_rot_y	ground_thorax_rot_z	ground_thorax_tx	ground_thorax_ty	ground_thorax_tz	clav_prot_r	clav_elev_r	scapula_abduction_r	scapula_elevation_r	scapula_upward_rot_r	scapula_winging_r	shoulder_elv_r	plane_of_elev_r	axial_rot_r	elbow_flexion_r	pro_sup_r	wrist_flex_r	wrist_dev_r	clav_prot_l	clav_elev_l	scapula_abduction_l	scapula_elevation_l	scapula_upward_rot_l	scapula_winging_l	shoulder_elv_l	plane_of_elev_l	axial_rot_l	elbow_flexion_l	pro_sup_l	wrist_flex_l	wrist_dev_l
      5.93000000	     -3.26459441	      2.03292875	     10.47787881	     -0.10898660	      1.03230874	      0.00214222	     10.78551634	    -15.45743532	     21.07689023	     -9.65481870	      4.55971755	     -2.59404827	    -15.75226386	    -69.69641140	    118.91976654	    -73.23282130	   -166.32372299	     13.59697843	     -4.49300672	     16.86448454	     -7.63315891	    -24.14980600	    -12.32155838	    -31.18090553	      4.90885192	     60.01670277	    -15.30695773	      6.45218259	     51.47909213	     11.83612480	     19.60139697	    -11.48292293
      5.94000000	     -3.04542324	      1.89226142	     10.63593512	     -0.10957547	      1.03205253	      0.00250115	     10.50984368	    -14.95586500	     20.35948866	     -9.00301919	      4.03669321	     -2.59691029	    -16.49500227	    -70.57925824	    118.96007198	    -74.67986572	   -166.32808884	     14.19651912	     -4.85290541	     16.57660881	     -7.07793272	    -23.70537043	    -13.02416910	    -31.56633641	      4.67930509	     59.71961718	    -15.91800703	      6.55244574	     53.21742745	     11.61172726	     19.53972497	    -11.77892883
      5.95000000	     -2.99772050	      1.87472106	     10.56068665	     -0.10980623	      1.03278925	      0.00292591	     10.06386030	    -15.33488994	     19.14098373	     -9.01152368	      3.11824207	     -1.90714711	    -17.75620397	    -71.71395018	    117.95878488	    -76.02985445	   -166.33119481	     16.24254045	     -7.12667791	     16.10241586	     -6.96932157	    -22.88951630	    -13.14953478	    -31.56898060	      4.26776573	     60.14551283	    -17.44848042	      5.71960658	     55.21097934	     11.30105085	     19.13925134	    -12.04984967
      5.96000000	     -2.78481487	      1.74218766	     10.66909773	     -0.11040486	      1.03238638	      0.00328980	      9.81790346	    -14.76466643	     18.47694943	     -8.28790066	      2.59474669	     -1.96151216	    -18.44321147	    -72.52248419	    118.02165235	    -77.35159166	   -166.28162002	     16.78614251	     -7.39893002	     15.86019490	     -6.35686758	    -22.52144816	    -13.91897151	    -31.98074964	      4.06535733	     59.89054850	    -18.08845908	      5.73183890	     56.96879944	     11.07243718	     19.04980052	    -12.36271903
      5.97000000	     -2.72509191	      1.72325039	     10.63264091	     -0.11044875	      1.03320553	      0.00351390	      9.22663585	    -15.10443151	     17.13158167	     -8.33892546	      1.87998332	     -1.24614318	    -20.03870799	    -73.77918557	    116.81365447	    -78.21581620	   -165.95252902	     19.30781101	     -9.85747219	     15.33189651	     -6.15679651	    -21.61625504	    -14.18033422	    -32.08362444	      3.60693284	     60.27126095	    -19.55141343	      4.79586235	     58.92014521	     10.54173533	     18.03323055	    -12.65798697
      5.98000000	     -2.52068983	      1.63210675	     10.72729336	     -0.11120636	      1.03270194	      0.00390054	      9.05376536	    -14.49066752	     16.54840289	     -7.53163774	      1.26965165	     -1.34796218	    -20.66049163	    -74.47694067	    116.84433894	    -79.39125524	   -165.85269521	     19.80396459	    -10.08134472	     15.16299034	     -5.54298063	    -21.37063151	    -14.96397479	    -32.51863279	      3.44742550	     60.11878337	    -20.27101632	      4.56479285	     60.65187086	     10.33821846	     17.93273439	    -12.99237548
      5.99000000	     -2.39356048	      1.70118850	     10.82923215	     -0.11167721	      1.03334308	      0.00427822	      8.66076123	    -14.56836477	     15.40236275	     -7.20819187	      0.26185923	     -0.85640313	    -21.90060047	    -75.34506203	    115.66708145	    -80.03982328	   -165.10648088	     22.23360971	    -12.18111749	     14.83256836	     -5.48053029	    -20.83099833	    -15.19779372	    -32.84706492	      3.13534133	     60.62998177	    -21.80635300	      3.40091310	     62.49571740	      9.97408264	     16.74203562	    -13.57093463
      6.00000000	     -2.18054594	      1.53036458	     10.91971798	     -0.11227392	      1.03305978	      0.00460250	      8.43435187	    -14.00085271	     14.80134219	     -6.49488639	     -0.20832164	     -0.90672377	    -22.59456782	    -76.16642360	    115.75524890	    -80.90544092	   -164.92180733	     22.75416232	    -12.42006656	     14.61317019	     -4.85492430	    -20.49731825	    -16.00454687	    -33.29425685	      2.91335558	     60.32876399	    -22.52458721	      3.42699239	     64.06127528	      9.77887897	     16.55562983	    -13.90250961
      6.01000000	     -2.07740592	      1.57002517	     10.97568999	     -0.11243053	      1.03384607	      0.00493633	      7.88908803	    -14.08727556	     13.53113612	     -6.27920958	     -0.96528848	     -0.36677480	    -24.15246456	    -77.09443589	    114.40042887	    -81.09940281	   -163.53632311	     25.94915769	    -14.93629019	     14.20217246	     -4.57369122	    -19.77719120	    -16.31150885	    -33.33612538	      2.55539869	     60.52429379	    -23.95641395	      2.27765538	     65.46479981	      9.63213317	     14.85596278	    -14.94642859
      6.02000000	     -1.98464514	      1.46210778	     10.87061209	     -0.11263531	      1.03401657	      0.00519014	      7.50006567	    -13.79409970	     12.83895478	     -5.98582515	     -1.04009147	     -0.24798387	    -26.45689796	    -77.92379013	    112.90469896	    -81.27257219	   -162.27460366	     28.22666513	    -16.52649299	     13.84098267	     -3.87788666	    -19.10607749	    -16.92096426	    -33.20054224	      2.24441708	     60.21315379	    -24.99974414	      1.61094117	     66.72572079	      9.45515565	     13.23523988	    -16.06932965
